<?xml version="1.0" standalone="no"?>
<!DOCTYPE svg PUBLIC "-//W3C//DTD SVG 20010904//EN"
 "http://www.w3.org/TR/2001/REC-SVG-20010904/DTD/svg10.dtd">
<svg version="1.0" xmlns="http://www.w3.org/2000/svg"
 width="390.000000pt" height="390.000000pt" viewBox="0 0 390.000000 390.000000"
 preserveAspectRatio="xMidYMid meet">
<metadata>
Created by potrace 1.14, written by Peter Selinger 2001-2017
</metadata>
<g transform="translate(0.000000,390.000000) scale(0.100000,-0.100000)"
fill="#000000" stroke="none">
<path d="M1920 3823 c-8 -3 -37 -16 -65 -28 -27 -13 -111 -49 -185 -80 -74
-32 -163 -71 -198 -86 -34 -16 -65 -29 -67 -29 -2 0 -28 -11 -57 -24 -29 -13
-181 -79 -338 -146 -157 -67 -303 -131 -325 -141 -22 -10 -110 -48 -195 -84
-85 -37 -179 -79 -207 -93 -53 -25 -84 -59 -84 -90 -1 -32 10 -167 15 -192 3
-14 8 -61 11 -105 3 -44 10 -120 15 -170 5 -49 12 -117 15 -150 3 -33 7 -84
10 -112 3 -29 7 -77 10 -105 13 -148 16 -175 20 -203 2 -16 7 -73 11 -125 3
-52 7 -97 9 -100 2 -3 6 -41 9 -85 4 -44 9 -93 11 -110 4 -31 13 -122 20 -209
4 -52 18 -176 21 -188 1 -5 2 -15 3 -23 2 -23 65 -79 171 -153 52 -36 97 -69
100 -72 3 -3 13 -9 22 -15 9 -5 99 -68 200 -139 101 -71 212 -150 248 -175 55
-38 538 -377 679 -475 23 -17 50 -35 59 -41 9 -5 27 -17 39 -26 12 -9 39 -15
60 -14 42 1 59 12 303 185 74 52 145 102 157 110 62 43 470 332 545 386 48 35
131 94 185 131 54 37 103 71 108 76 6 4 67 48 137 98 139 97 143 103 153 214
13 149 16 172 20 205 2 19 7 71 10 114 4 43 8 88 10 98 3 11 7 54 10 95 5 71
9 117 20 213 3 25 8 74 10 110 3 36 7 81 10 100 5 41 12 106 20 210 4 41 8 86
10 100 2 14 7 59 10 100 3 41 8 93 10 115 8 69 14 128 20 205 4 41 8 82 11 90
2 9 -6 36 -18 60 -22 43 -28 47 -148 98 -69 30 -132 58 -140 63 -8 5 -22 12
-30 15 -8 3 -125 53 -260 111 -135 58 -279 120 -320 138 -41 17 -238 103 -438
189 -348 151 -409 173 -442 159z"/>
</g>
</svg>
